<svg id="Layer_1" data-name="Layer 1" xmlns="http://www.w3.org/2000/svg" viewBox="0 0 437 69.8"aria-labelledby="logo__mobile--one-line-id" preserveAspectRatio="xMidYMin meet"><title id="logo__mobile--one-line-id">ACLU NorCal Logo</title><defs></defs><path class="cls-1" d="M21.9,1.4H52.1L61,48.6h.7a22.52,22.52,0,0,1-.1-2.6V23.5C61.5,8.3,69,0,85.4,0h3c15,0,21.8,8,21.8,20.9h1V1.4h19V50.1h22.6V1.4h19V46.5c0,3.8,1.3,5.8,5.5,5.8h2.2c4.1,0,5.5-2,5.5-5.8V1.4h19V45.8c0,15.8-8.3,24-24.4,24H177c-11.4,0-18.5-4.4-21.8-13.6h-.6V68.35H111V48.9h-1c-.4,13.2-7.8,20.9-22.7,20.9H85.2c-11.2,0-18.1-4.4-20.9-12.6h-.8l2.3,11.2H47.2L45,56.6H28.1L26,68.4H8ZM42.3,41.9,37.2,14.2H35.9L30.8,41.9Zm68.8-.6V28.5h-17v-5c0-4.1-1.5-6.1-5.7-6.1H86.3c-4.2,0-5.7,2-5.7,6.1V46.35c0,4.1,1.5,6.1,5.7,6.1h2.1c4.2,0,5.7-2,5.7-6.1v-5Z" transform="translate(-8 0)"/><path class="cls-1" d="M217.2,66.27V63.36c2.91-.23,4.88-.93,5.93-2.09s1.51-3.37,1.51-6.74V22a3.89,3.89,0,0,0-2.09-1.74,12.89,12.89,0,0,0-4.19-.47H217.2V16.64h13.48l27.43,37.54V28.38c0-3.6-.58-5.93-1.63-7.09s-3.25-1.74-6.5-1.74V16.64h19.29v2.91c-2.91.11-4.88.81-5.93,2s-1.63,3.49-1.63,6.86V67.55h-2.79L228.24,25.71V54.53q0,5.24,1.74,7c1.17,1.17,3.38,1.75,6.51,1.75v2.9H217.2Z" transform="translate(-8 0)"/><path class="cls-1" d="M271.36,50.35c0-5.12,1.4-9.18,4.3-12.32a14.55,14.55,0,0,1,11.16-4.77A14.26,14.26,0,0,1,298,38c2.9,3.14,4.3,7.32,4.3,12.32s-1.4,9.18-4.3,12.32a15.45,15.45,0,0,1-21.84.47c-.17-.15-.32-.31-.48-.47C272.76,59.53,271.36,55.34,271.36,50.35Zm7.09,0c0,4.88.7,8.48,2,10.81a6.64,6.64,0,0,0,6.27,3.37,7.11,7.11,0,0,0,6.51-3.37c1.28-2.21,2-5.82,2-10.81s-.7-8.6-2-10.81a7.74,7.74,0,0,0-12.78,0C279,41.75,278.45,45.35,278.45,50.35Z" transform="translate(-8 0)"/><path class="cls-1" d="M318.32,60.69c0,1.05.11,1.74.46,2a3.23,3.23,0,0,0,1.86.58l4.18.11v2.91H306.69V63.36l3.26-.11a2.57,2.57,0,0,0,1.86-.58c.35-.35.46-.93.46-2V39.77a2.76,2.76,0,0,0-.7-2.21,6.91,6.91,0,0,0-3.37-.46h-2.09V34.42l12-.81v9.76a18.19,18.19,0,0,1,4.19-7.43,8.55,8.55,0,0,1,5.92-2.56A6.56,6.56,0,0,1,332.73,35a5.7,5.7,0,0,1,1.74,4.18,3.76,3.76,0,0,1-1.16,3,3.66,3.66,0,0,1-2.91,1.16,4.34,4.34,0,0,1-3-1,3.91,3.91,0,0,1-1.05-2.91,4.91,4.91,0,0,1,.35-1.74,3.73,3.73,0,0,1,1.05-1.28h-.35q-3.66,0-6.28,4.88a24.87,24.87,0,0,0-2.67,11.86v7.55Z" transform="translate(-8 0)"/><path class="cls-1" d="M379.68,48.84l3.26.34c-.82,5.7-2.91,10.23-6.28,13.49a18.4,18.4,0,0,1-13.13,4.88,22,22,0,0,1-7.33-1.16A20.23,20.23,0,0,1,350,62.9,25.31,25.31,0,0,1,343,53.6a29.33,29.33,0,0,1-2.32-12.2,29.64,29.64,0,0,1,1.51-9.76,26.79,26.79,0,0,1,4.42-8.26,23.71,23.71,0,0,1,7.32-6,21.4,21.4,0,0,1,9.18-2,18.11,18.11,0,0,1,6.63,1.17,18.41,18.41,0,0,1,5.81,3.37l2.67-4.3h2.67l.93,20.1-2.67.12c-1.05-5.7-2.79-10-5.35-12.9A12.93,12.93,0,0,0,355.5,21.7a12.49,12.49,0,0,0-2.2,2.5c-2.44,3.83-3.6,9.53-3.6,17.2s1.16,13.48,3.6,17.2,6.16,5.58,11.27,5.58a13.34,13.34,0,0,0,9.88-4C376.89,57.67,378.64,53.83,379.68,48.84Z" transform="translate(-8 0)"/><path class="cls-1" d="M410.6,61.85a16,16,0,0,1-12.32,5.58,9.81,9.81,0,0,1-6.86-2.32A7.75,7.75,0,0,1,388.86,59c0-3.26,1.63-5.93,5-7.91s8.83-3.6,16.39-4.88V42.91c0-2.56-.58-4.3-1.63-5.23s-3-1.4-5.69-1.4a11.84,11.84,0,0,0-4.42.7q-1.74.71-1.74,1.74a4.79,4.79,0,0,0,.81,1.4,4,4,0,0,1,.81,2.44,3.22,3.22,0,0,1-2.92,3.49,5.23,5.23,0,0,1-.56,0,4.12,4.12,0,0,1-3-1,3.85,3.85,0,0,1-1.05-2.9,7.36,7.36,0,0,1,3.72-6.28,17.11,17.11,0,0,1,9.53-2.56c4.42,0,7.67.82,9.65,2.44s3,4.19,3,7.79V59.41a4,4,0,0,0,.58,2.33,2.14,2.14,0,0,0,1.86.81,3.14,3.14,0,0,0,1.63-.46,3.26,3.26,0,0,1,1.27-.47c.24,0,.35.12.59.35a1.8,1.8,0,0,1,.23.81c0,.93-.7,1.86-2,2.79a7.35,7.35,0,0,1-4.41,1.4,6.13,6.13,0,0,1-3.84-1.28A6.86,6.86,0,0,1,410.6,61.85Zm-.35-12.78q-7.67,1.05-11.16,3.14a6.46,6.46,0,0,0-3.49,5.69,5.72,5.72,0,0,0,1.4,4.19,5.56,5.56,0,0,0,4.07,1.39,8.75,8.75,0,0,0,6.74-2.67,10.35,10.35,0,0,0,2.44-7.32Z" transform="translate(-8 0)"/><path class="cls-1" d="M427.68,66.27V63.36l3.26-.11a2.35,2.35,0,0,0,1.86-.58,2.94,2.94,0,0,0,.46-2V21.41a2.75,2.75,0,0,0-.7-2.21,5.63,5.63,0,0,0-3-.58h-2V15.94l12.08-.81V60.57c0,1,.12,1.63.47,2a3.16,3.16,0,0,0,1.86.58l3,.12v2.9H427.68Z" transform="translate(-8 0)"/></svg>
