<svg id="Layer_1" data-name="Layer 1" xmlns="http://www.w3.org/2000/svg" viewBox="0 0 230.53 32" aria-labelledby="logo-one-line-id" preserveAspectRatio="xMidYMin meet"><title id="logo-one-line-id">ACLUNC Logo</title><defs></defs><path class="cls-1" d="M60.66,23.91V23a2.78,2.78,0,0,0,1.86-.64A3.36,3.36,0,0,0,63,20.19V9.9a1.21,1.21,0,0,0-.65-0.55A4,4,0,0,0,61,9.18H60.66v-1h4.26L73.6,20.06V11.91a3.31,3.31,0,0,0-.53-2.24A3,3,0,0,0,71,9.11V8.17h6.09V9.11a2.65,2.65,0,0,0-1.88.62,3.39,3.39,0,0,0-.5,2.18v12.4H73.83l-9.7-13.23v9.11a3.25,3.25,0,0,0,.55,2.22,2.85,2.85,0,0,0,2,.56v0.94H60.66Z"/><path class="cls-1" d="M79.66,22.89a1.31,1.31,0,0,1,.39-1A1.27,1.27,0,0,1,81,21.54a1.35,1.35,0,1,1,0,2.7,1.26,1.26,0,0,1-.94-0.4A1.32,1.32,0,0,1,79.66,22.89Z"/><path class="cls-1" d="M99.71,18.4l1,0.13a6.88,6.88,0,0,1-2,4.26,5.82,5.82,0,0,1-4.16,1.54,7,7,0,0,1-2.3-.37,6.15,6.15,0,0,1-1.94-1.09,7.93,7.93,0,0,1-2.24-2.94A9.56,9.56,0,0,1,87.35,16,9.76,9.76,0,0,1,87.82,13a8.57,8.57,0,0,1,1.4-2.61,6.33,6.33,0,0,1,5.24-2.52,5.83,5.83,0,0,1,3.92,1.44l0.83-1.35H100l0.29,6.34-0.85,0a8.48,8.48,0,0,0-1.7-4.1,3.85,3.85,0,0,0-3-1.42,3.77,3.77,0,0,0-3.42,1.81A10.4,10.4,0,0,0,90.18,16a10.21,10.21,0,0,0,1.14,5.46,3.93,3.93,0,0,0,3.55,1.76A4.22,4.22,0,0,0,98,22,6.92,6.92,0,0,0,99.71,18.4Z"/><path class="cls-1" d="M109.35,22.52a4.47,4.47,0,0,1-1.69,1.27,5.34,5.34,0,0,1-2.21.47,3.17,3.17,0,0,1-2.19-.72,2.46,2.46,0,0,1-.81-1.94A2.85,2.85,0,0,1,104,19.09a15.52,15.52,0,0,1,5.19-1.54v-1a2.09,2.09,0,0,0-.53-1.64,2.81,2.81,0,0,0-1.81-.45,3.68,3.68,0,0,0-1.41.23,0.7,0.7,0,0,0-.55.56,1.88,1.88,0,0,0,.26.43,1.35,1.35,0,0,1,.26.79,1.06,1.06,0,0,1-.3.8,1.14,1.14,0,0,1-.83.29,1.3,1.3,0,0,1-.95-0.33,1.21,1.21,0,0,1-.34-0.92,2.35,2.35,0,0,1,1.18-2,5.32,5.32,0,0,1,3-.79,4.89,4.89,0,0,1,3,.76,3,3,0,0,1,.94,2.47v5.06a1.17,1.17,0,0,0,.2.75,0.73,0.73,0,0,0,.61.25,1.25,1.25,0,0,0,.52-0.15,1.27,1.27,0,0,1,.42-0.15,0.22,0.22,0,0,1,.18.1,0.39,0.39,0,0,1,.08.25,1.18,1.18,0,0,1-.63.88,2.41,2.41,0,0,1-1.42.44,1.77,1.77,0,0,1-1.21-.42A2,2,0,0,1,109.35,22.52Zm-0.13-4a9.56,9.56,0,0,0-3.54,1,2,2,0,0,0-1.11,1.82,1.83,1.83,0,0,0,.43,1.33,1.73,1.73,0,0,0,1.29.44,2.81,2.81,0,0,0,2.14-.83,3.22,3.22,0,0,0,.79-2.31V18.49Z"/><path class="cls-1" d="M113.94,23.91V23l1,0a0.9,0.9,0,0,0,.6-0.18,1,1,0,0,0,.15-0.63V9.75a0.83,0.83,0,0,0-.23-0.7,1.75,1.75,0,0,0-1-.18H113.9V8l3.82-.27V22.15a1,1,0,0,0,.14.63,0.89,0.89,0,0,0,.6.18l0.95,0v0.92h-5.47Z"/><path class="cls-1" d="M120.71,23.91V23l1,0a0.91,0.91,0,0,0,.6-0.18,0.94,0.94,0,0,0,.15-0.63V15.53a0.83,0.83,0,0,0-.23-0.7,1.75,1.75,0,0,0-1-.18h-0.64V13.82l3.82-.27v8.59a1,1,0,0,0,.14.63,0.89,0.89,0,0,0,.6.18l0.95,0v0.92h-5.47Zm2.72-15.76a1.28,1.28,0,0,1,.92.38,1.27,1.27,0,0,1,0,1.83,1.29,1.29,0,0,1-.93.37,1.23,1.23,0,0,1-.9-0.38,1.27,1.27,0,0,1,0-1.81A1.23,1.23,0,0,1,123.43,8.15Z"/><path class="cls-1" d="M127.55,23.91V23l0.94,0a1,1,0,0,0,.6-0.19,1,1,0,0,0,.13-0.62V14.72h-1.79V13.82h1.79V13.37a7,7,0,0,1,1-4.16,3.52,3.52,0,0,1,3-1.39,3.59,3.59,0,0,1,2.17.6,1.86,1.86,0,0,1,.82,1.57,1.28,1.28,0,0,1-.33.92,1.13,1.13,0,0,1-.85.35,1.14,1.14,0,0,1-1.15-1.15,1.33,1.33,0,0,1,.17-0.6,1.39,1.39,0,0,0,.17-0.42,0.34,0.34,0,0,0-.22-0.3,1.36,1.36,0,0,0-.61-0.11,1.77,1.77,0,0,0-1.71,1.1,9.07,9.07,0,0,0-.53,3.64v0.42h2.33v0.89H131.2v7.43a1,1,0,0,0,.15.65,0.77,0.77,0,0,0,.56.16h1.33v1h-5.69Z"/><path class="cls-1" d="M135.3,18.88A5.58,5.58,0,0,1,136.66,15a4.92,4.92,0,0,1,7.07,0,5.61,5.61,0,0,1,1.35,3.91,5.56,5.56,0,0,1-1.36,3.9,4.93,4.93,0,0,1-7.06,0A5.55,5.55,0,0,1,135.3,18.88Zm2.25,0a7,7,0,0,0,.63,3.41,2.15,2.15,0,0,0,2,1.08,2.2,2.2,0,0,0,2-1.06,7,7,0,0,0,.63-3.43,7.05,7.05,0,0,0-.63-3.44,2.44,2.44,0,0,0-4,0A7.05,7.05,0,0,0,137.54,18.88Z"/><path class="cls-1" d="M150.36,22.15a1,1,0,0,0,.14.64,0.88,0.88,0,0,0,.59.17l1.32,0v0.92h-5.74V23l1,0a0.88,0.88,0,0,0,.59-0.17,1,1,0,0,0,.14-0.64V15.53a0.81,0.81,0,0,0-.23-0.69,2.18,2.18,0,0,0-1.08-.17h-0.65V13.82l3.79-.27v3.08a5.8,5.8,0,0,1,1.32-2.34,2.58,2.58,0,0,1,1.86-.8,2,2,0,0,1,1.43.53,1.75,1.75,0,0,1,.56,1.33,1.36,1.36,0,0,1-.36,1,1.2,1.2,0,0,1-.91.38,1.3,1.3,0,0,1-.94-0.34,1.21,1.21,0,0,1-.35-0.91,1.24,1.24,0,0,1,.12-0.54,1,1,0,0,1,.32-0.39h-0.13a2.37,2.37,0,0,0-2,1.53,7.78,7.78,0,0,0-.84,3.77v2.33Z"/><path class="cls-1" d="M156.7,23.91V23l0.93,0a0.87,0.87,0,0,0,.59-0.17,1,1,0,0,0,.13-0.64V15.53a0.84,0.84,0,0,0-.23-0.7,1.76,1.76,0,0,0-1-.18H156.5V13.82l3.74-.27v2.1a5.13,5.13,0,0,1,1.59-1.59,3.81,3.81,0,0,1,2-.51,3.2,3.2,0,0,1,2.44.91A3.61,3.61,0,0,1,167.1,17v5.1a1,1,0,0,0,.14.63,0.85,0.85,0,0,0,.59.18l0.93,0v0.92h-5.27V23l0.93,0a0.83,0.83,0,0,0,.59-0.18,1,1,0,0,0,.14-0.63V17a2.08,2.08,0,0,0-.52-1.52,2,2,0,0,0-1.48-.53,2.46,2.46,0,0,0-2.09.92,4.44,4.44,0,0,0-.7,2.72v3.6a1,1,0,0,0,.14.64,0.9,0.9,0,0,0,.59.17l0.9,0v0.92H156.7Z"/><path class="cls-1" d="M170.06,23.91V23l1,0a0.91,0.91,0,0,0,.6-0.18,0.94,0.94,0,0,0,.15-0.63V15.53a0.83,0.83,0,0,0-.23-0.7,1.75,1.75,0,0,0-1-.18H170V13.82l3.82-.27v8.59a1,1,0,0,0,.14.63,0.89,0.89,0,0,0,.6.18l0.95,0v0.92h-5.47Zm2.72-15.76a1.28,1.28,0,0,1,.92.38,1.27,1.27,0,0,1,0,1.83,1.29,1.29,0,0,1-.93.37,1.23,1.23,0,0,1-.9-0.38,1.27,1.27,0,0,1,0-1.81A1.23,1.23,0,0,1,172.77,8.15Z"/><path class="cls-1" d="M183.86,22.52a4.47,4.47,0,0,1-1.69,1.27,5.34,5.34,0,0,1-2.21.47,3.17,3.17,0,0,1-2.19-.72,2.46,2.46,0,0,1-.81-1.94,2.85,2.85,0,0,1,1.59-2.52,15.52,15.52,0,0,1,5.19-1.54v-1a2.09,2.09,0,0,0-.53-1.64,2.81,2.81,0,0,0-1.81-.45,3.68,3.68,0,0,0-1.41.23,0.7,0.7,0,0,0-.55.56,1.88,1.88,0,0,0,.26.43,1.35,1.35,0,0,1,.26.79,1.06,1.06,0,0,1-.3.8,1.14,1.14,0,0,1-.83.29,1.3,1.3,0,0,1-.95-0.33,1.21,1.21,0,0,1-.34-0.92,2.35,2.35,0,0,1,1.18-2,5.32,5.32,0,0,1,3-.79,4.89,4.89,0,0,1,3,.76,3,3,0,0,1,.94,2.47v5.06a1.17,1.17,0,0,0,.2.75,0.73,0.73,0,0,0,.61.25,1.25,1.25,0,0,0,.52-0.15,1.27,1.27,0,0,1,.42-0.15,0.22,0.22,0,0,1,.18.1,0.39,0.39,0,0,1,.08.25,1.18,1.18,0,0,1-.63.88,2.41,2.41,0,0,1-1.42.44,1.77,1.77,0,0,1-1.21-.42A2,2,0,0,1,183.86,22.52Zm-0.13-4a9.56,9.56,0,0,0-3.54,1,2,2,0,0,0-1.11,1.82,1.83,1.83,0,0,0,.43,1.33,1.73,1.73,0,0,0,1.29.44,2.81,2.81,0,0,0,2.14-.83,3.22,3.22,0,0,0,.79-2.31V18.49Z"/><path class="cls-2" d="M26.27,20a1.19,1.19,0,0,1-1.34-1.43v-5.2A1.19,1.19,0,0,1,26.27,12h0.49a1.19,1.19,0,0,1,1.34,1.43v1.1h4v3h-4v1.1A1.19,1.19,0,0,1,26.76,20H26.27Zm-12.71-2.4,1.08-5.83h0.22L16,17.64h-2.4Zm-5.4,6.21h4.24l0.52-2.76h3.7l0.52,2.76h4.39L21,21.48c0.78,1.73,2.44,2.64,5,2.64h0.49c3.43,0,5.24-1.59,5.54-4.33v4.06H42.31V21.27c0.87,1.93,2.6,2.85,5.24,2.85h0.61c3.77,0,5.72-1.93,5.72-5.63V8.16H49.42V18.67A1.15,1.15,0,0,1,48.12,20H47.6a1.14,1.14,0,0,1-1.3-1.37V8.16H41.84V19.57H36.55V8.16H32.09v3.9c-0.29-2.62-2-4.17-5.33-4.17H26.06c-3.83,0-5.58,1.95-5.58,5.51V18.9L18.27,8.16H11.41Z"/></svg>
