<svg version="1.1" xmlns="http://www.w3.org/2000/svg" xmlns:xlink="http://www.w3.org/1999/xlink"
	 viewBox="13 12 142 99" preserveAspectRatio="xMidYMin meet"><title>ACLUNC Logo</title>
<g class="logo-text logo-text-aclu">
  <path d="M68.9,49.7c-3.1,0-4.2-1.5-4.2-4.4V29.1c0-3,1.1-4.4,4.2-4.4h1.5c3.1,0,4.2,1.5,4.2,4.4v3.4h12.4v9.3H74.6
	v3.4c0,3-1.1,4.4-4.2,4.4H68.9z M29.5,42.2l3.3-18.1h0.7l3.4,18.1H29.5z M12.7,61.5h13.1l1.6-8.5h11.5l1.6,8.5h13.6l-1.5-7.4
	c2.4,5.4,7.6,8.2,15.6,8.2h1.5c10.6,0,16.3-4.9,17.2-13.4v12.6h31.7v-8c2.7,6,8.1,8.8,16.3,8.8h1.9c11.7,0,17.7-6,17.7-17.4v-32
	h-13.8v32.6c0,2.8-1,4.2-4,4.2H135c-3.1,0-4-1.5-4-4.2V12.8h-13.8v35.4h-16.4V12.8H86.9v12.1C86,16.8,80.8,12,70.4,12h-2.2
	c-11.9,0-17.3,6-17.3,17.1v16.1v0.9l-6.9-33.3H22.8L12.7,61.5z"/>
</g>
<g class="logo-text logo-text-northern">
  <path d="M12.7,85.5v-0.9c0.9-0.1,1.5-0.3,1.8-0.6c0.3-0.3,0.5-1,0.5-2.1v-10c-0.1-0.3-0.4-0.4-0.6-0.5
	c-0.3-0.1-0.7-0.2-1.3-0.2h-0.4v-1h4.1l8.4,11.5v-7.9c0-1.1-0.2-1.8-0.5-2.2c-0.3-0.3-1-0.5-2-0.5v-0.9h5.9v0.9
	c-0.9,0-1.5,0.2-1.8,0.6c-0.3,0.4-0.5,1.1-0.5,2.1v12h-0.8L16.1,73v8.8c0,1.1,0.2,1.8,0.5,2.2c0.4,0.4,1,0.5,2,0.5v0.9H12.7z"/>
  <path d="M29.8,80.6c0-1.6,0.4-2.8,1.3-3.8c0.9-1,2-1.5,3.4-1.5c1.4,0,2.6,0.5,3.4,1.5c0.9,1,1.3,2.2,1.3,3.8
	c0,1.6-0.4,2.8-1.3,3.8c-0.9,1-2,1.4-3.4,1.4c-1.4,0-2.5-0.5-3.4-1.4C30.2,83.4,29.8,82.2,29.8,80.6z M31.9,80.6
	c0,1.5,0.2,2.6,0.6,3.3c0.4,0.7,1.1,1,1.9,1c0.9,0,1.6-0.3,2-1c0.4-0.7,0.6-1.8,0.6-3.3s-0.2-2.6-0.6-3.3c-0.4-0.7-1.1-1-2-1
	c-0.9,0-1.5,0.3-2,1C32.1,78,31.9,79.1,31.9,80.6z"/>
  <path d="M44.4,83.8c0,0.3,0,0.5,0.1,0.6s0.3,0.2,0.6,0.2l1.3,0v0.9h-5.6v-0.9l1,0c0.3,0,0.5-0.1,0.6-0.2
	c0.1-0.1,0.1-0.3,0.1-0.6v-6.4c0-0.3-0.1-0.6-0.2-0.7c-0.1-0.1-0.5-0.2-1-0.2h-0.6v-0.8l3.7-0.3v3c0.3-1,0.8-1.8,1.3-2.3
	c0.5-0.5,1.1-0.8,1.8-0.8c0.6,0,1,0.2,1.4,0.5s0.5,0.8,0.5,1.3c0,0.4-0.1,0.7-0.3,0.9s-0.5,0.4-0.9,0.4c-0.4,0-0.7-0.1-0.9-0.3
	c-0.2-0.2-0.3-0.5-0.3-0.9c0-0.2,0-0.4,0.1-0.5c0.1-0.2,0.2-0.3,0.3-0.4h-0.1c-0.7,0-1.4,0.5-1.9,1.5c-0.5,1-0.8,2.2-0.8,3.7V83.8z"
  />
  <path d="M51.8,76.6h-1.7v-0.8c0.9-0.1,1.6-0.5,2-1.2c0.5-0.7,0.7-1.8,0.8-3.2h0.9v4.3h3v0.9h-3.2v6.1
	c0,0.7,0.1,1.2,0.3,1.4c0.2,0.3,0.5,0.4,1,0.4c0.6,0,1-0.2,1.3-0.7c0.3-0.5,0.4-1.2,0.5-2.2l0.8,0v0.3c0,1.3-0.3,2.2-0.8,2.9
	s-1.4,1-2.5,1c-0.9,0-1.5-0.2-1.9-0.6c-0.4-0.4-0.5-1.2-0.5-2.3V76.6z"/>
  <path d="M60.5,71.7c0-0.3-0.1-0.6-0.2-0.7c-0.2-0.1-0.5-0.2-1-0.2c-0.1,0-0.2,0-0.3,0c-0.1,0-0.3,0-0.3,0v-0.8
	l3.7-0.3v7.5c0.4-0.6,0.9-1.1,1.5-1.4c0.6-0.3,1.2-0.5,1.9-0.5c1,0,1.8,0.3,2.4,0.9c0.6,0.6,0.8,1.4,0.8,2.5v4.9
	c0,0.3,0,0.5,0.1,0.6c0.1,0.1,0.3,0.2,0.6,0.2l0.9,0v0.9h-5.1v-0.9l0.9,0c0.3,0,0.5-0.1,0.6-0.2c0.1-0.1,0.1-0.3,0.1-0.6v-5
	c0-0.6-0.2-1.1-0.5-1.5c-0.3-0.3-0.8-0.5-1.4-0.5c-0.9,0-1.6,0.3-2,0.9c-0.5,0.6-0.7,1.5-0.7,2.6v3.5c0,0.3,0,0.5,0.1,0.6
	c0.1,0.1,0.3,0.1,0.6,0.2l0.9,0v0.9h-5.1v-0.9l0.9,0c0.3,0,0.5-0.1,0.6-0.2c0.1-0.1,0.1-0.3,0.1-0.6V71.7z"/>
  <path d="M74.1,80.7c0,0.1,0,0.1,0,0.2c0,0.1,0,0.2,0,0.2c0,1.1,0.3,1.9,0.8,2.6s1.2,1,2.1,1c0.7,0,1.4-0.2,1.9-0.6
	s1-1,1.4-1.7l0.7,0.4c-0.5,1-1.1,1.7-1.8,2.2s-1.6,0.7-2.7,0.7c-1.4,0-2.5-0.5-3.3-1.4c-0.9-1-1.3-2.2-1.3-3.8
	c0-1.6,0.4-2.8,1.3-3.8c0.9-1,2-1.5,3.3-1.5c1.4,0,2.5,0.4,3.3,1.3s1.2,2.1,1.2,3.7v0.4H74.1z M74.1,79.8H78c0.3,0,0.5,0,0.6-0.1
	c0.1-0.1,0.1-0.3,0.1-0.5c0-1-0.2-1.7-0.6-2.2c-0.4-0.5-0.9-0.8-1.7-0.8c-0.8,0-1.4,0.3-1.8,0.9C74.3,77.7,74.1,78.6,74.1,79.8z"/>
  <path d="M86,83.8c0,0.3,0,0.5,0.1,0.6s0.3,0.2,0.6,0.2l1.3,0v0.9h-5.6v-0.9l1,0c0.3,0,0.5-0.1,0.6-0.2
	c0.1-0.1,0.1-0.3,0.1-0.6v-6.4c0-0.3-0.1-0.6-0.2-0.7c-0.1-0.1-0.5-0.2-1-0.2h-0.6v-0.8l3.7-0.3v3c0.3-1,0.8-1.8,1.3-2.3
	c0.5-0.5,1.1-0.8,1.8-0.8c0.6,0,1,0.2,1.4,0.5s0.5,0.8,0.5,1.3c0,0.4-0.1,0.7-0.3,0.9s-0.5,0.4-0.9,0.4c-0.4,0-0.7-0.1-0.9-0.3
	c-0.2-0.2-0.3-0.5-0.3-0.9c0-0.2,0-0.4,0.1-0.5c0.1-0.2,0.2-0.3,0.3-0.4h-0.1c-0.7,0-1.4,0.5-1.9,1.5c-0.5,1-0.8,2.2-0.8,3.7V83.8z"
  />
  <path d="M92.1,85.5v-0.9l0.9,0c0.3,0,0.5-0.1,0.6-0.2c0.1-0.1,0.1-0.3,0.1-0.6v-6.4c0-0.3-0.1-0.6-0.2-0.7
	c-0.2-0.1-0.5-0.2-0.9-0.2c-0.1,0-0.2,0-0.3,0c-0.1,0-0.3,0-0.3,0v-0.8l3.6-0.3v2c0.5-0.7,1-1.2,1.5-1.5c0.6-0.3,1.2-0.5,1.9-0.5
	c1,0,1.8,0.3,2.4,0.9s0.8,1.4,0.8,2.5v4.9c0,0.3,0,0.5,0.1,0.6c0.1,0.1,0.3,0.2,0.6,0.2l0.9,0v0.9h-5.1v-0.9l0.9,0
	c0.3,0,0.5-0.1,0.6-0.2c0.1-0.1,0.1-0.3,0.1-0.6v-5c0-0.6-0.2-1.1-0.5-1.5c-0.3-0.3-0.8-0.5-1.4-0.5c-0.9,0-1.6,0.3-2,0.9
	c-0.5,0.6-0.7,1.5-0.7,2.6v3.5c0,0.3,0,0.5,0.1,0.6c0.1,0.1,0.3,0.1,0.6,0.2l0.9,0v0.9H92.1z"/>
</g>
<g class="logo-text logo-text-california">
	<path d="M92.7,108.8v-0.9l1,0c0.3,0,0.5-0.1,0.6-0.2c0.1-0.1,0.1-0.3,0.1-0.6v-6.4c0-0.3-0.1-0.6-0.2-0.7
		c-0.2-0.1-0.5-0.2-0.9-0.2c-0.1,0-0.2,0-0.3,0c-0.1,0-0.2,0-0.3,0V99l3.7-0.3v8.3c0,0.3,0,0.5,0.1,0.6c0.1,0.1,0.3,0.2,0.6,0.2
		l0.9,0v0.9H92.7z M95.3,93.5c0.3,0,0.6,0.1,0.9,0.4c0.3,0.2,0.4,0.5,0.4,0.9c0,0.4-0.1,0.6-0.4,0.9C96,95.8,95.7,96,95.3,96
		c-0.3,0-0.6-0.1-0.9-0.4c-0.2-0.2-0.4-0.5-0.4-0.9s0.1-0.6,0.4-0.9S95,93.5,95.3,93.5z"/>
	<g>
		<path d="M24.4,103.4l1,0.1c-0.2,1.8-0.9,3.1-1.9,4.1c-1.1,1-2.4,1.5-4,1.5c-0.8,0-1.5-0.1-2.2-0.4
			c-0.7-0.2-1.3-0.6-1.9-1.1c-1-0.8-1.7-1.8-2.2-2.9c-0.5-1.1-0.7-2.4-0.7-3.8c0-1.1,0.2-2.1,0.5-3c0.3-0.9,0.8-1.8,1.4-2.5
			c0.7-0.8,1.4-1.4,2.2-1.8c0.8-0.4,1.8-0.6,2.8-0.6c0.7,0,1.4,0.1,2,0.3c0.6,0.2,1.2,0.6,1.8,1l0.8-1.3h0.8l0.3,6.2l-0.8,0
			c-0.3-1.7-0.9-3.1-1.6-4c-0.8-0.9-1.8-1.4-3-1.4c-1.5,0-2.6,0.6-3.3,1.8c-0.7,1.2-1.1,2.9-1.1,5.3c0,2.4,0.4,4.2,1.1,5.3
			c0.7,1.1,1.9,1.7,3.4,1.7c1.2,0,2.2-0.4,3-1.2C23.5,106.1,24.1,104.9,24.4,103.4z"/>
		<path d="M33.7,107.4c-0.4,0.5-1,0.9-1.6,1.2c-0.7,0.3-1.4,0.5-2.1,0.5c-0.9,0-1.6-0.2-2.1-0.7
			c-0.5-0.5-0.8-1.1-0.8-1.9c0-1,0.5-1.8,1.5-2.4c1-0.6,2.7-1.1,5-1.5v-1c0-0.8-0.2-1.3-0.5-1.6c-0.3-0.3-0.9-0.4-1.8-0.4
			c-0.6,0-1,0.1-1.4,0.2c-0.4,0.1-0.5,0.3-0.5,0.5c0,0,0.1,0.2,0.3,0.4s0.3,0.5,0.3,0.8c0,0.3-0.1,0.6-0.3,0.8
			c-0.2,0.2-0.5,0.3-0.8,0.3c-0.4,0-0.7-0.1-0.9-0.3c-0.2-0.2-0.3-0.5-0.3-0.9c0-0.8,0.4-1.4,1.1-1.9s1.7-0.8,2.9-0.8
			c1.4,0,2.4,0.2,3,0.7c0.6,0.5,0.9,1.3,0.9,2.4v4.9c0,0.3,0.1,0.6,0.2,0.7c0.1,0.2,0.3,0.2,0.6,0.2c0.1,0,0.3,0,0.5-0.1
			c0.2-0.1,0.3-0.1,0.4-0.1c0.1,0,0.1,0,0.2,0.1c0.1,0.1,0.1,0.1,0.1,0.2c0,0.3-0.2,0.6-0.6,0.9c-0.4,0.3-0.9,0.4-1.4,0.4
			c-0.5,0-0.9-0.1-1.2-0.4S33.8,107.9,33.7,107.4z M33.6,103.5c-1.6,0.2-2.7,0.5-3.4,1c-0.7,0.4-1.1,1-1.1,1.8c0,0.6,0.1,1,0.4,1.3
			c0.3,0.3,0.7,0.4,1.3,0.4c0.9,0,1.6-0.3,2.1-0.8c0.5-0.5,0.8-1.3,0.8-2.2V103.5z"/>
		<path d="M38.2,108.8v-0.9l1,0c0.3,0,0.5-0.1,0.6-0.2c0.1-0.1,0.1-0.3,0.1-0.6V95c0-0.3-0.1-0.6-0.2-0.7
			c-0.2-0.1-0.5-0.2-0.9-0.2c-0.1,0-0.2,0-0.3,0c-0.1,0-0.2,0-0.3,0v-0.8l3.7-0.3V107c0,0.3,0,0.5,0.1,0.6c0.1,0.1,0.3,0.2,0.6,0.2
			l0.9,0v0.9H38.2z"/>
		<path d="M44.8,108.8v-0.9l1,0c0.3,0,0.5-0.1,0.6-0.2c0.1-0.1,0.1-0.3,0.1-0.6v-6.4c0-0.3-0.1-0.6-0.2-0.7
			c-0.2-0.1-0.5-0.2-0.9-0.2c-0.1,0-0.2,0-0.3,0c-0.1,0-0.2,0-0.3,0V99l3.7-0.3v8.3c0,0.3,0,0.5,0.1,0.6c0.1,0.1,0.3,0.2,0.6,0.2
			l0.9,0v0.9H44.8z M47.4,93.5c0.3,0,0.6,0.1,0.9,0.4c0.3,0.2,0.4,0.5,0.4,0.9c0,0.4-0.1,0.6-0.4,0.9c-0.2,0.2-0.5,0.4-0.9,0.4
			c-0.3,0-0.6-0.1-0.9-0.4c-0.2-0.2-0.4-0.5-0.4-0.9s0.1-0.6,0.4-0.9S47.1,93.5,47.4,93.5z"/>
		<path d="M51.4,108.8v-0.9l0.9,0c0.3,0,0.5-0.1,0.6-0.2c0.1-0.1,0.1-0.3,0.1-0.6v-7.2h-1.7V99H53v-0.4
			c0-1.8,0.3-3.1,1-4c0.7-0.9,1.6-1.4,2.9-1.4c0.9,0,1.6,0.2,2.1,0.6s0.8,0.9,0.8,1.5c0,0.4-0.1,0.7-0.3,0.9
			c-0.2,0.2-0.5,0.3-0.8,0.3c-0.3,0-0.6-0.1-0.8-0.3c-0.2-0.2-0.3-0.5-0.3-0.8c0-0.2,0.1-0.4,0.2-0.6c0.1-0.2,0.2-0.3,0.2-0.4
			c0-0.1-0.1-0.2-0.2-0.3C57.6,94,57.4,94,57.1,94c-0.8,0-1.3,0.4-1.7,1.1c-0.3,0.7-0.5,1.9-0.5,3.5V99h2.3v0.9h-2.3v7.2
			c0,0.3,0,0.5,0.1,0.6c0.1,0.1,0.3,0.2,0.5,0.2h1.3v0.9H51.4z"/>
		<path d="M58.9,103.9c0-1.6,0.4-2.8,1.3-3.8c0.9-1,2-1.5,3.4-1.5c1.4,0,2.6,0.5,3.4,1.5c0.9,1,1.3,2.2,1.3,3.8
			c0,1.6-0.4,2.8-1.3,3.8c-0.9,1-2,1.4-3.4,1.4c-1.4,0-2.5-0.5-3.4-1.4C59.4,106.7,58.9,105.4,58.9,103.9z M61.1,103.9
			c0,1.5,0.2,2.6,0.6,3.3c0.4,0.7,1.1,1,1.9,1c0.9,0,1.6-0.3,2-1c0.4-0.7,0.6-1.8,0.6-3.3s-0.2-2.6-0.6-3.3c-0.4-0.7-1.1-1-2-1
			c-0.9,0-1.5,0.3-2,1C61.3,101.2,61.1,102.3,61.1,103.9z"/>
		<path d="M73.5,107c0,0.3,0,0.5,0.1,0.6s0.3,0.2,0.6,0.2l1.3,0v0.9H70v-0.9l1,0c0.3,0,0.5-0.1,0.6-0.2
			c0.1-0.1,0.1-0.3,0.1-0.6v-6.4c0-0.3-0.1-0.6-0.2-0.7c-0.1-0.1-0.5-0.2-1-0.2h-0.6V99l3.7-0.3v3c0.3-1,0.8-1.8,1.3-2.3
			c0.5-0.5,1.1-0.8,1.8-0.8c0.6,0,1,0.2,1.4,0.5s0.5,0.8,0.5,1.3c0,0.4-0.1,0.7-0.3,0.9s-0.5,0.4-0.9,0.4c-0.4,0-0.7-0.1-0.9-0.3
			c-0.2-0.2-0.3-0.5-0.3-0.9c0-0.2,0-0.4,0.1-0.5c0.1-0.2,0.2-0.3,0.3-0.4h-0.1c-0.7,0-1.4,0.5-1.9,1.5c-0.5,1-0.8,2.2-0.8,3.7V107z
			"/>
		<path d="M79.7,108.8v-0.9l0.9,0c0.3,0,0.5-0.1,0.6-0.2c0.1-0.1,0.1-0.3,0.1-0.6v-6.4c0-0.3-0.1-0.6-0.2-0.7
			c-0.2-0.1-0.5-0.2-0.9-0.2c-0.1,0-0.2,0-0.3,0c-0.1,0-0.3,0-0.3,0V99l3.6-0.3v2c0.5-0.7,1-1.2,1.5-1.5c0.6-0.3,1.2-0.5,1.9-0.5
			c1,0,1.8,0.3,2.4,0.9s0.8,1.4,0.8,2.5v4.9c0,0.3,0,0.5,0.1,0.6c0.1,0.1,0.3,0.2,0.6,0.2l0.9,0v0.9h-5.1v-0.9l0.9,0
			c0.3,0,0.5-0.1,0.6-0.2c0.1-0.1,0.1-0.3,0.1-0.6v-5c0-0.6-0.2-1.1-0.5-1.5c-0.3-0.3-0.8-0.5-1.4-0.5c-0.9,0-1.6,0.3-2,0.9
			c-0.5,0.6-0.7,1.5-0.7,2.6v3.5c0,0.3,0,0.5,0.1,0.6c0.1,0.1,0.3,0.1,0.6,0.2l0.9,0v0.9H79.7z"/>
		<path d="M106.1,107.4c-0.4,0.5-1,0.9-1.6,1.2c-0.7,0.3-1.4,0.5-2.1,0.5c-0.9,0-1.6-0.2-2.1-0.7
			c-0.5-0.5-0.8-1.1-0.8-1.9c0-1,0.5-1.8,1.5-2.4c1-0.6,2.7-1.1,5-1.5v-1c0-0.8-0.2-1.3-0.5-1.6c-0.3-0.3-0.9-0.4-1.8-0.4
			c-0.6,0-1,0.1-1.4,0.2c-0.4,0.1-0.5,0.3-0.5,0.5c0,0,0.1,0.2,0.3,0.4s0.3,0.5,0.3,0.8c0,0.3-0.1,0.6-0.3,0.8
			c-0.2,0.2-0.5,0.3-0.8,0.3c-0.4,0-0.7-0.1-0.9-0.3c-0.2-0.2-0.3-0.5-0.3-0.9c0-0.8,0.4-1.4,1.1-1.9s1.7-0.8,2.9-0.8
			c1.4,0,2.4,0.2,3,0.7c0.6,0.5,0.9,1.3,0.9,2.4v4.9c0,0.3,0.1,0.6,0.2,0.7c0.1,0.2,0.3,0.2,0.6,0.2c0.1,0,0.3,0,0.5-0.1
			c0.2-0.1,0.3-0.1,0.4-0.1c0.1,0,0.1,0,0.2,0.1c0.1,0.1,0.1,0.1,0.1,0.2c0,0.3-0.2,0.6-0.6,0.9c-0.4,0.3-0.9,0.4-1.4,0.4
			c-0.5,0-0.9-0.1-1.2-0.4S106.2,107.9,106.1,107.4z M105.9,103.5c-1.6,0.2-2.7,0.5-3.4,1c-0.7,0.4-1.1,1-1.1,1.8
			c0,0.6,0.1,1,0.4,1.3c0.3,0.3,0.7,0.4,1.3,0.4c0.9,0,1.6-0.3,2.1-0.8c0.5-0.5,0.8-1.3,0.8-2.2V103.5z"/>
	</g>
</g>
</svg>
